<?xml version="1.0" encoding="UTF-8" standalone="no"?>
<svg width="130px" height="146px" viewBox="0 0 130 146" version="1.1" xmlns="http://www.w3.org/2000/svg" xmlns:xlink="http://www.w3.org/1999/xlink">
    <g id="whitepaper" stroke="none" stroke-width="1" fill="none" fill-rule="evenodd">
        <g id="Artboard-5" transform="translate(-1032.000000, -1103.000000)" fill="#000000" fill-rule="nonzero">
            <path d="M1161.27697,1203.2413 C1160.44839,1200.15691 1158.46636,1197.57866 1155.69569,1195.98224 C1154.69997,1195.40835 1153.64492,1194.98875 1152.5585,1194.72116 L1152.5585,1186.41082 C1152.5585,1184.83916 1151.28155,1183.56442 1149.70654,1183.56442 C1148.13153,1183.56442 1146.85457,1184.83916 1146.85457,1186.41082 L1146.85457,1194.72771 C1146.77186,1194.74792 1146.68886,1194.76557 1146.60643,1194.78777 C1144.4564,1195.3628 1142.5531,1196.49607 1141.05453,1198.06346 L1128.30327,1190.71558 C1130.44331,1186.21383 1131.64325,1181.18402 1131.64325,1175.87864 C1131.64325,1170.57156 1130.44245,1165.53947 1128.30041,1161.03658 L1141.06166,1153.6833 C1142.65949,1155.34747 1144.68031,1156.48301 1146.85429,1157.01591 L1146.85429,1166.20076 C1146.85429,1167.77298 1148.13124,1169.04716 1149.70625,1169.04716 C1151.28155,1169.04716 1152.55822,1167.7727 1152.55822,1166.20076 L1152.55822,1157.02246 C1153.63351,1156.76 1154.6897,1156.3478 1155.6954,1155.7685 C1158.46636,1154.17179 1160.44868,1151.59383 1161.2764,1148.50944 C1162.10469,1145.42505 1161.67971,1142.20317 1160.07959,1139.43761 C1156.77726,1133.72886 1149.437,1131.7655 1143.71682,1135.06168 C1142.71111,1135.64127 1141.82435,1136.34753 1141.05881,1137.14546 L1108.34409,1118.2944 C1108.65384,1117.23373 1108.82326,1116.11412 1108.82326,1114.95495 C1108.82326,1108.36288 1103.44963,1103 1096.84496,1103 C1090.24029,1103 1084.86666,1108.36288 1084.86666,1114.95495 C1084.86666,1116.11412 1085.03608,1117.23373 1085.34584,1118.2944 L1052.6354,1137.14318 C1051.86015,1136.33785 1050.96826,1135.63558 1049.97282,1135.06197 C1044.25264,1131.7655 1036.91238,1133.72886 1033.61004,1139.4379 C1032.01022,1142.20317 1031.58523,1145.42505 1032.41324,1148.50972 C1033.24125,1151.59411 1035.22327,1154.17236 1037.99423,1155.76878 C1039.00022,1156.34837 1040.05641,1156.76028 1041.13142,1157.02303 L1041.13142,1165.63199 C1041.13142,1167.20421 1042.40837,1168.47839 1043.98338,1168.47839 C1045.5584,1168.47839 1046.83535,1167.20393 1046.83535,1165.63199 L1046.83535,1157.01591 C1049.00933,1156.48273 1051.02986,1155.34719 1052.62769,1153.6833 L1065.39521,1161.04028 C1063.25432,1165.5426 1062.05409,1170.57327 1062.05409,1175.87921 C1062.05409,1181.18288 1063.25346,1186.21184 1065.39265,1190.71245 L1052.6354,1198.06374 C1051.13682,1196.49664 1049.23352,1195.36337 1047.08378,1194.78834 C1047.00135,1194.76614 1046.91835,1194.74877 1046.83563,1194.72827 L1046.83563,1186.98016 C1046.83563,1185.40822 1045.55868,1184.13375 1043.98367,1184.13375 C1042.40866,1184.13375 1041.13171,1185.4085 1041.13171,1186.98016 L1041.13171,1194.72144 C1040.04529,1194.98875 1038.99024,1195.40863 1037.99452,1195.98253 C1035.22356,1197.57895 1033.24125,1200.15719 1032.41352,1203.24158 C1031.58523,1206.32625 1032.01022,1209.54785 1033.61033,1212.31341 C1035.82652,1216.14448 1039.86075,1218.28832 1044.00392,1218.28832 C1046.03444,1218.28832 1048.09176,1217.77279 1049.97311,1216.68877 C1050.96883,1216.11516 1051.86044,1215.41288 1052.63568,1214.60784 L1085.34584,1233.45633 C1085.03608,1234.51701 1084.86666,1235.63661 1084.86666,1236.79578 C1084.86666,1243.38786 1090.24001,1248.75074 1096.84496,1248.75074 C1103.44991,1248.75074 1108.82326,1243.38786 1108.82326,1236.79578 C1108.82326,1235.63661 1108.65384,1234.51701 1108.34409,1233.45633 L1141.05367,1214.60699 C1141.82891,1215.4126 1142.7211,1216.11516 1143.7171,1216.68877 C1145.59873,1217.77336 1147.65549,1218.28832 1149.68629,1218.28832 C1153.82889,1218.28804 1157.86397,1216.1442 1160.07988,1212.31341 C1161.67999,1209.54757 1162.10526,1206.32597 1161.27697,1203.2413 Z M1143.64579,1143.79419 C1144.07962,1142.17869 1145.11784,1140.82851 1146.56906,1139.99186 C1149.56535,1138.26535 1153.41018,1139.29357 1155.14007,1142.28402 C1155.97806,1143.7327 1156.20082,1145.42021 1155.767,1147.03599 C1155.33317,1148.65149 1154.29495,1150.00196 1152.84373,1150.83832 C1149.84772,1152.56483 1146.00261,1151.53689 1144.27272,1148.54616 C1143.43473,1147.09748 1143.21225,1145.40968 1143.64579,1143.79419 Z M1049.41749,1148.54616 C1048.57921,1149.99484 1047.22611,1151.03104 1045.60746,1151.46402 C1043.98852,1151.897 1042.29771,1151.67467 1040.8462,1150.83832 C1039.39469,1150.00196 1038.35675,1148.65149 1037.92293,1147.03599 C1037.4891,1145.4205 1037.71186,1143.7327 1038.54985,1142.28402 C1039.71072,1140.27739 1041.82395,1139.15408 1043.99422,1139.15408 C1045.05783,1139.15408 1046.13512,1139.42395 1047.12086,1139.99186 C1048.57237,1140.82822 1049.6103,1142.17869 1050.04413,1143.79419 C1050.47824,1145.40997 1050.25576,1147.09777 1049.41749,1148.54616 Z M1050.04356,1207.95598 C1049.6103,1209.57205 1048.57208,1210.92195 1047.12086,1211.7583 C1044.12514,1213.48425 1040.27974,1212.4566 1038.54985,1209.46644 C1037.71186,1208.01776 1037.4891,1206.32995 1037.92293,1204.71446 C1038.35675,1203.09839 1039.39497,1201.74849 1040.8462,1200.91214 C1041.81311,1200.35504 1042.88584,1200.07037 1043.97312,1200.07037 C1044.51818,1200.07037 1045.06667,1200.14182 1045.60717,1200.28643 C1047.22611,1200.71942 1048.57893,1201.75589 1049.41692,1203.20429 C1050.25462,1204.65297 1050.47738,1206.34077 1050.04356,1207.95598 Z M1105.48613,1123.22117 L1138.21312,1142.07934 C1137.58819,1144.22546 1137.56109,1146.54152 1138.20627,1148.75511 L1125.43932,1156.11181 C1119.6601,1147.81086 1110.35036,1142.13485 1099.69692,1141.26917 L1099.69692,1126.56489 C1101.9405,1126.01576 1103.93622,1124.8341 1105.48613,1123.22117 Z M1096.84867,1191.38085 C1100.36378,1191.38085 1103.56087,1190.00391 1105.93365,1187.76527 L1109.69234,1188.46499 C1112.63558,1189.01298 1114.77191,1191.57955 1114.77191,1194.56772 L1114.77191,1198.73157 C1109.82868,1202.60222 1103.60393,1204.91259 1096.84838,1204.91259 C1090.09283,1204.91259 1083.86809,1202.60222 1078.92457,1198.73186 L1078.92457,1194.56801 C1078.92457,1191.57984 1081.0609,1189.01298 1084.00414,1188.46528 L1087.76312,1187.76556 C1090.13676,1190.0042 1093.33384,1191.38085 1096.84867,1191.38085 Z M1089.31274,1178.16681 L1089.31274,1174.01975 C1089.31274,1169.87241 1092.69323,1166.49852 1096.84867,1166.49852 C1101.00411,1166.49852 1104.38459,1169.87241 1104.38459,1174.01975 L1104.38459,1178.16681 C1104.38459,1182.31387 1101.00411,1185.68805 1096.84867,1185.68805 C1092.69323,1185.68805 1089.31274,1182.31387 1089.31274,1178.16681 Z M1110.73826,1182.86897 L1109.31784,1182.60451 C1109.81528,1181.21647 1110.08824,1179.72309 1110.08824,1178.16653 L1110.08824,1174.01947 C1110.08824,1166.73309 1104.149,1160.80543 1096.84838,1160.80543 C1089.54777,1160.80543 1083.60853,1166.73309 1083.60853,1174.01947 L1083.60853,1178.16653 C1083.60853,1179.72309 1083.88149,1181.21647 1084.37892,1182.60451 L1082.9585,1182.86897 C1077.8564,1183.81863 1074.01956,1187.93294 1073.3316,1192.94796 C1069.82846,1188.15356 1067.75773,1182.25352 1067.75773,1175.87864 C1067.75773,1159.86944 1080.80762,1146.84498 1096.8481,1146.84498 C1112.88857,1146.84498 1125.93847,1159.86944 1125.93847,1175.87864 C1125.93847,1181.14388 1124.52632,1186.0863 1122.06112,1190.34864 C1122.05256,1190.36288 1122.04258,1190.37597 1122.03402,1190.39021 C1122.0286,1190.3996 1122.02461,1190.40956 1122.01919,1190.41896 C1121.51178,1191.29232 1120.95844,1192.1358 1120.36517,1192.94796 C1119.6775,1187.93294 1115.84065,1183.81863 1110.73826,1182.86897 Z M1096.84496,1108.69281 C1100.30474,1108.69281 1103.11934,1111.50192 1103.11934,1114.95495 C1103.11934,1118.40799 1100.30445,1121.21738 1096.84496,1121.21738 C1093.38547,1121.21738 1090.57059,1118.40827 1090.57059,1114.95524 C1090.57059,1111.5022 1093.38518,1108.69281 1096.84496,1108.69281 Z M1055.48736,1148.75739 C1056.09774,1146.67873 1056.12969,1144.46686 1055.55382,1142.32102 C1055.53157,1142.23875 1055.50561,1142.15819 1055.48165,1142.07649 L1088.2035,1123.22117 C1089.75342,1124.8341 1091.74913,1126.01576 1093.99271,1126.56489 L1093.99271,1141.27003 C1083.34128,1142.13798 1074.03353,1147.81428 1068.25602,1156.11494 L1055.48736,1148.75739 Z M1088.2035,1228.52928 L1055.48165,1209.67424 C1055.50533,1209.59254 1055.53157,1209.51198 1055.55382,1209.42971 C1056.12997,1207.28388 1056.09803,1205.072 1055.48736,1202.99335 L1068.25231,1195.63779 C1074.02983,1203.94101 1083.33899,1209.61987 1093.99271,1210.48754 L1093.99271,1225.18556 C1091.74913,1225.73469 1089.75342,1226.91607 1088.2035,1228.52928 Z M1096.84496,1243.05764 C1093.38518,1243.05764 1090.57059,1240.24853 1090.57059,1236.7955 C1090.57059,1233.34247 1093.38518,1230.53335 1096.84496,1230.53335 C1100.30474,1230.53335 1103.11934,1233.34247 1103.11934,1236.7955 C1103.11934,1240.24853 1100.30445,1243.05764 1096.84496,1243.05764 Z M1105.48613,1228.52928 C1103.93622,1226.91607 1101.9405,1225.73469 1099.69692,1225.18556 L1099.69692,1210.4884 C1110.35235,1209.62272 1119.6638,1203.94471 1125.44275,1195.64064 L1138.20228,1202.99307 C1137.5919,1205.07172 1137.55995,1207.28359 1138.13611,1209.42943 C1138.15807,1209.51141 1138.18431,1209.59169 1138.20798,1209.67282 L1105.48613,1228.52928 Z M1155.14007,1209.46672 C1153.41047,1212.45688 1149.56592,1213.48511 1146.56906,1211.75859 C1145.11756,1210.92223 1144.07962,1209.57205 1143.64579,1207.95627 C1143.21197,1206.34077 1143.43473,1204.65325 1144.27272,1203.20457 C1145.11071,1201.75589 1146.46382,1200.71998 1148.08275,1200.28672 C1148.60585,1200.14695 1149.13637,1200.07692 1149.66404,1200.07236 C1149.6783,1200.07265 1149.69228,1200.07464 1149.70682,1200.07464 C1149.72394,1200.07464 1149.74048,1200.07236 1149.75759,1200.07208 C1150.83089,1200.0792 1151.88908,1200.36244 1152.84401,1200.91242 C1154.29552,1201.74878 1155.33345,1203.09896 1155.76728,1204.71474 C1156.20082,1206.33024 1155.97806,1208.01804 1155.14007,1209.46672 Z M1046.00021,1174.0801 C1046.53073,1174.6093 1046.83592,1175.34375 1046.83592,1176.09243 C1046.83592,1176.84338 1046.53073,1177.57527 1046.00021,1178.10447 C1045.46998,1178.6368 1044.7341,1178.93883 1043.98396,1178.93883 C1043.2341,1178.93883 1042.49822,1178.6368 1041.9677,1178.10447 C1041.43718,1177.57555 1041.13199,1176.84395 1041.13199,1176.09243 C1041.13199,1175.34403 1041.43718,1174.60959 1041.9677,1174.0801 C1042.49793,1173.55062 1043.23096,1173.24602 1043.98396,1173.24602 C1044.73381,1173.24602 1045.46969,1173.55062 1046.00021,1174.0801 Z M1151.72393,1173.86632 C1152.25445,1174.39552 1152.55679,1175.12996 1152.55679,1175.87864 C1152.55679,1176.62704 1152.25445,1177.36148 1151.72393,1177.89068 C1151.19085,1178.42045 1150.45782,1178.72505 1149.70768,1178.72505 C1148.95497,1178.72505 1148.22194,1178.42017 1147.68857,1177.89068 C1147.15805,1177.36177 1146.85572,1176.62732 1146.85572,1175.87864 C1146.85572,1175.13025 1147.15805,1174.3958 1147.68857,1173.86632 C1148.2188,1173.33683 1148.95468,1173.03252 1149.70768,1173.03224 C1150.45753,1173.03224 1151.19056,1173.33683 1151.72393,1173.86632 Z" id="user"></path>
        </g>
    </g>
</svg>