<?xml version="1.0" encoding="UTF-8" standalone="no"?>
<svg width="128px" height="128px" viewBox="0 0 128 128" version="1.1" xmlns="http://www.w3.org/2000/svg" xmlns:xlink="http://www.w3.org/1999/xlink">
    <g id="whitepaper" stroke="none" stroke-width="1" fill="none" fill-rule="evenodd">
        <g transform="translate(-418.000000, -1056.000000)" fill="#000000" fill-rule="nonzero">
            <path d="M491,1108.5 L473,1108.5 C471.61925,1108.5 470.5,1109.6195 470.5,1111 L470.5,1129 C470.5,1130.3805 471.61925,1131.5 473,1131.5 L491,1131.5 C492.38075,1131.5 493.5,1130.3805 493.5,1129 L493.5,1111 C493.5,1109.6195 492.38075,1108.5 491,1108.5 Z M537.5,1069.5 C542.187,1069.5 546,1073.313 546,1078 C546,1082.687 542.187,1086.5 537.5,1086.5 C532.813,1086.5 529,1082.687 529,1078 C529,1073.313 532.813,1069.5 537.5,1069.5 Z M537.5,1081.5 C539.43,1081.5 541,1079.93 541,1078 C541,1076.07 539.43,1074.5 537.5,1074.5 C535.57,1074.5 534,1076.07 534,1078 C534,1079.93 535.57,1081.5 537.5,1081.5 Z M524.6475,1076.225 C525.1125,1076.69 525.38,1077.335 525.38,1077.9925 C525.38,1078.65 525.1125,1079.295 524.6475,1079.76 C524.1825,1080.225 523.5375,1080.4925 522.88,1080.4925 C522.22,1080.4925 521.5775,1080.22475 521.11,1079.76 C520.645,1079.295 520.38,1078.65 520.38,1077.9925 C520.38,1077.335 520.645,1076.69 521.11,1076.225 C521.575,1075.76 522.22,1075.4925 522.88,1075.4925 C523.5375,1075.4925 524.1825,1075.76025 524.6475,1076.225 Z M521.8835,1122.5 L506.5,1122.5 L506.5,1133 L524.00775,1133 C525.3885,1133 526.50775,1134.1195 526.50775,1135.5 L526.50775,1167.378 C529.97425,1168.4505 532.5,1171.6855 532.5,1175.5 C532.5,1180.187 528.687,1184 524,1184 C519.313,1184 515.5,1180.187 515.5,1175.5 C515.5,1171.68 518.03325,1168.44125 521.50775,1167.3735 L521.50775,1138 L506.5,1138 L506.5,1142 C506.5,1143.3805 505.38075,1144.5 504,1144.5 L484.5,1144.5 L484.5,1159.88325 C487.9705,1160.95325 490.5,1164.19025 490.5,1168.0075 C490.5,1172.6945 486.687,1176.5075 482,1176.5075 C477.313,1176.5075 473.5,1172.6945 473.5,1168.0075 C473.5,1164.19025 476.0295,1160.9535 479.5,1159.88325 L479.5,1144.5 L469,1144.5 L469,1162.0075 C469,1163.388 467.88075,1164.5075 466.5,1164.5075 L449.9945,1164.5075 C448.61375,1164.5075 447.4945,1163.388 447.4945,1162.0075 C447.4945,1160.627 448.61375,1159.5075 449.9945,1159.5075 L464,1159.5075 L464,1144.5 L460,1144.5 C458.61925,1144.5 457.5,1143.3805 457.5,1142 L457.5,1122.5 L442.1165,1122.5 C441.0465,1125.97075 437.8095,1128.5 433.99225,1128.5 C429.30525,1128.5 425.49225,1124.687 425.49225,1120 C425.49225,1115.313 429.30525,1111.5 433.99225,1111.5 C437.80925,1111.5 441.04625,1114.02925 442.1165,1117.5 L457.5,1117.5 L457.5,1107 L439.99225,1107 C438.6115,1107 437.49225,1105.8805 437.49225,1104.5 L437.49225,1072.622 C434.02575,1071.5495 431.5,1068.3145 431.5,1064.5 C431.5,1059.813 435.313,1056 440,1056 C444.687,1056 448.5,1059.813 448.5,1064.5 C448.5,1068.32 445.96675,1071.55875 442.49225,1072.6265 L442.49225,1102 L457.5,1102 L457.5,1098 C457.5,1096.6195 458.61925,1095.5 460,1095.5 L479.5,1095.5 L479.5,1080.11675 C476.0295,1079.04675 473.5,1075.80975 473.5,1071.9925 C473.5,1067.3055 477.313,1063.4925 482,1063.4925 C486.687,1063.4925 490.5,1067.3055 490.5,1071.9925 C490.5,1075.80975 487.9705,1079.0465 484.5,1080.11675 L484.5,1095.5 L495,1095.5 L495,1077.9925 C495,1076.612 496.11925,1075.4925 497.5,1075.4925 L514.0055,1075.4925 C515.38625,1075.4925 516.5055,1076.612 516.5055,1077.9925 C516.5055,1079.373 515.38625,1080.4925 514.0055,1080.4925 L500,1080.4925 L500,1095.5 L504,1095.5 C505.38075,1095.5 506.5,1096.6195 506.5,1098 L506.5,1117.5 L521.8835,1117.5 C522.9535,1114.02925 526.1905,1111.5 530.00775,1111.5 C534.6945,1111.5 538.50775,1115.313 538.50775,1120 C538.50775,1124.687 534.69475,1128.5 530.00775,1128.5 C526.19075,1128.5 522.95375,1125.97075 521.8835,1122.5 Z M530.00775,1116.5 C528.07775,1116.5 526.50775,1118.07 526.50775,1120 C526.50775,1121.93 528.07775,1123.5 530.00775,1123.5 C531.9375,1123.5 533.50775,1121.93 533.50775,1120 C533.50775,1118.07 531.93775,1116.5 530.00775,1116.5 Z M440,1068 C441.93,1068 443.5,1066.43 443.5,1064.5 C443.5,1062.57 441.93,1061 440,1061 C438.07,1061 436.5,1062.57 436.5,1064.5 C436.5,1066.43 438.07,1068 440,1068 Z M433.99225,1123.5 C435.92225,1123.5 437.49225,1121.93 437.49225,1120 C437.49225,1118.07 435.92225,1116.5 433.99225,1116.5 C432.06225,1116.5 430.49225,1118.07 430.49225,1120 C430.49225,1121.93 432.06225,1123.5 433.99225,1123.5 Z M478.5,1071.9925 C478.5,1073.9225 480.07,1075.4925 482,1075.4925 C483.93,1075.4925 485.5,1073.9225 485.5,1071.9925 C485.5,1070.0625 483.93,1068.4925 482,1068.4925 C480.07,1068.4925 478.5,1070.0625 478.5,1071.9925 Z M485.5,1168.0075 C485.5,1166.0775 483.93,1164.5075 482,1164.5075 C480.07,1164.5075 478.5,1166.0775 478.5,1168.0075 C478.5,1169.9375 480.07,1171.5075 482,1171.5075 C483.93,1171.5075 485.5,1169.9375 485.5,1168.0075 Z M488.5,1126.5 L475.5,1126.5 L475.5,1113.5 L488.5,1113.5 L488.5,1126.5 Z M501.5,1139.5 L501.5,1100.5 L462.5,1100.5 L462.5,1139.5 L501.5,1139.5 Z M524,1172 C522.07,1172 520.5,1173.57 520.5,1175.5 C520.5,1177.43 522.07,1179 524,1179 C525.93,1179 527.5,1177.43 527.5,1175.5 C527.5,1173.57 525.93,1172 524,1172 Z M426.5,1153.5 C431.187,1153.5 435,1157.313 435,1162 C435,1166.687 431.187,1170.5 426.5,1170.5 C421.813,1170.5 418,1166.687 418,1162 C418,1157.313 421.813,1153.5 426.5,1153.5 Z M426.5,1165.5 C428.43,1165.5 430,1163.93 430,1162 C430,1160.07 428.43,1158.5 426.5,1158.5 C424.57,1158.5 423,1160.07 423,1162 C423,1163.93 424.57,1165.5 426.5,1165.5 Z M442.8925,1160.24 C443.3575,1160.70475 443.625,1161.34975 443.625,1162.0075 C443.625,1162.665 443.3575,1163.31 442.8925,1163.77475 C442.4275,1164.24 441.7825,1164.5075 441.125,1164.5075 C440.4675,1164.5075 439.8225,1164.23975 439.3575,1163.77475 C438.8925,1163.31 438.625,1162.665 438.625,1162.0075 C438.625,1161.34975 438.8925,1160.70475 439.3575,1160.24 C439.8225,1159.77475 440.4675,1159.5075 441.125,1159.5075 C441.7825,1159.5075 442.4275,1159.775 442.8925,1160.24 Z" id="cpu"></path>
        </g>
    </g>
</svg>