<?xml version="1.0" encoding="UTF-8" standalone="no"?>
<svg width="108px" height="128px" viewBox="0 0 108 128" version="1.1" xmlns="http://www.w3.org/2000/svg" xmlns:xlink="http://www.w3.org/1999/xlink">
    <g id="whitepaper" stroke="none" stroke-width="1" fill="none" fill-rule="evenodd">
        <g id="Artboard-5" transform="translate(-903.000000, -1048.000000)" fill="#000000" fill-rule="nonzero">
            <path d="M998.0832,1064.298 C985.901051,1062.125 974.682614,1055.503 969.079674,1051.74925 C965.418977,1049.2965 961.161516,1048 956.767172,1048 C952.372828,1048 948.115367,1049.2965 944.454921,1051.74925 C938.851981,1055.503 927.633544,1062.12525 915.451647,1064.29825 C908.236744,1065.585 903,1071.79875 903,1079.0725 L903,1109.24975 C903,1119.219 905.801972,1128.93725 911.328307,1138.1345 C915.651572,1145.32975 921.642056,1152.2065 929.132735,1158.57375 C941.727795,1169.28 954.199535,1174.863 954.724214,1175.09525 L956.767172,1176 L958.810633,1175.09525 C959.335312,1174.863 971.807051,1169.28 984.402112,1158.57375 C991.89254,1152.2065 997.883023,1145.32975 1002.20654,1138.1345 C1007.73287,1128.937 1010.53485,1119.219 1010.53485,1109.24975 L1010.53485,1079.07225 C1010.53485,1071.7985 1005.2981,1065.58475 998.0832,1064.298 Z M1000.48432,1109.2495 C1000.48432,1124.112 992.941144,1138.09325 978.063767,1150.8055 C969.41573,1158.195 960.635581,1163.0115 956.767423,1164.96625 C947.876009,1160.4695 913.049777,1140.83225 913.049777,1109.24975 L913.049777,1079.07225 C913.049777,1076.6485 914.805405,1074.576 917.224353,1074.1445 C931.218642,1071.64825 943.808177,1064.24075 950.066651,1060.04775 C952.062642,1058.7105 954.37987,1058.0035 956.767172,1058.0035 C959.154474,1058.0035 961.471451,1058.7105 963.467442,1060.048 C969.726167,1064.241 982.315451,1071.6485 996.30974,1074.145 C998.728437,1074.5765 1000.48432,1076.64875 1000.48432,1079.07275 L1000.48432,1109.2495 Z M948.984893,1121.60775 L931.810381,1105.60325 L924.941581,1112.90575 L949.632642,1135.91475 L988.908474,1092.07625 L981.407749,1085.41825 L948.984893,1121.60775 Z" id="shield"></path>
        </g>
    </g>
</svg>