<?xml version="1.0" encoding="UTF-8" standalone="no"?>
<svg width="141px" height="142px" viewBox="0 0 141 142" version="1.1" xmlns="http://www.w3.org/2000/svg" xmlns:xlink="http://www.w3.org/1999/xlink">
    <g id="whitepaper" stroke="none" stroke-width="1" fill="none" fill-rule="evenodd">
        <g id="Artboard-5" transform="translate(-606.000000, -1085.000000)" fill="#000000" fill-rule="nonzero">
            <path d="M644.600148,1174.16768 C645.381148,1175.48257 644.953484,1177.18657 643.640539,1177.97062 C643.194016,1178.23742 642.702285,1178.36445 642.217766,1178.36445 C641.277848,1178.36445 640.362613,1177.88658 639.843426,1177.02127 C639.055492,1175.70777 639.475391,1173.99379 640.788613,1173.20585 C642.101559,1172.41792 643.799457,1172.8331 644.587668,1174.14688 C644.589609,1174.15048 644.59793,1174.16407 644.600148,1174.16768 Z M687.337156,1152.4708 C688.868648,1152.4708 690.110594,1153.71247 690.110594,1155.24424 C690.110594,1162.89061 683.889773,1169.11115 676.243684,1169.11115 C668.597316,1169.11115 662.376773,1162.89033 662.376773,1155.24424 C662.376773,1147.59787 668.597594,1141.37733 676.243684,1141.37733 C677.775176,1141.37733 679.017121,1142.619 679.017121,1144.15077 C679.017121,1145.68254 677.775176,1146.9242 676.243684,1146.9242 C671.656141,1146.9242 667.923648,1150.6567 667.923648,1155.24424 C667.923648,1159.83178 671.655863,1163.56427 676.243684,1163.56427 C680.831227,1163.56427 684.563719,1159.83206 684.563719,1155.24424 C684.563719,1153.71247 685.805664,1152.4708 687.337156,1152.4708 Z M689.928934,1130.48105 C698.936504,1135.46852 704.532191,1144.95756 704.531637,1155.24424 C704.531637,1170.84233 691.841773,1183.53247 676.243406,1183.53247 C660.645316,1183.53247 647.955176,1170.84261 647.955176,1155.24424 C647.955176,1153.71247 649.197121,1152.4708 650.728613,1152.4708 C652.260105,1152.4708 653.502051,1153.71247 653.502051,1155.24424 C653.502051,1167.78406 663.703863,1177.98587 676.243684,1177.98587 C688.783504,1177.98587 698.985316,1167.78406 698.985316,1155.24424 C698.985316,1146.97385 694.485414,1139.34468 687.242027,1135.33373 C685.901902,1134.59156 685.417105,1132.90392 686.159277,1131.5638 C686.901172,1130.22395 688.589086,1129.73888 689.928934,1130.48105 Z M676.344637,1126.95601 C677.876129,1126.96294 679.111973,1128.21043 679.105316,1129.7422 C679.098383,1131.26954 677.857824,1132.50288 676.332156,1132.50288 C676.327719,1132.50288 676.323559,1132.50288 676.319121,1132.50288 L676.244238,1132.50288 C674.712746,1132.50288 673.470801,1131.26121 673.470801,1129.72945 C673.470801,1128.19768 674.712746,1126.95601 676.244238,1126.95601 L676.344637,1126.95601 Z M735.949137,1144.70545 C741.760043,1144.70545 746.486258,1149.43333 746.486258,1155.24424 C746.486258,1161.05514 741.758656,1165.78302 735.947473,1165.78302 C731.096453,1165.78302 727.002582,1162.48735 725.781715,1158.01768 L718.561625,1158.01768 C717.825277,1168.9489 712.841688,1179.38036 704.628707,1186.98956 C701.104777,1190.25473 698.849418,1194.64702 698.214855,1199.33191 C700.842133,1199.7213 702.866742,1201.98498 702.866742,1204.71904 L702.866742,1210.45423 C702.866742,1211.42798 702.606871,1212.341 702.157574,1213.13337 C702.606871,1213.92546 702.866742,1214.83848 702.866742,1215.81251 L702.866742,1221.54742 C702.866742,1224.55383 700.421125,1227 697.414441,1227 L655.070707,1227 C652.064301,1227 649.618406,1224.55411 649.618406,1221.54742 L649.618406,1215.81251 C649.618406,1214.83875 649.878277,1213.92546 650.327574,1213.13337 C649.878277,1212.34127 649.618406,1211.42826 649.618406,1210.45423 L649.618406,1204.71904 C649.618406,1201.97583 651.65716,1199.70549 654.298027,1199.32803 C653.713109,1194.64258 651.474668,1190.25473 647.931602,1187.00065 C647.486188,1186.59157 647.039941,1186.16418 646.605898,1185.7307 C645.522039,1184.6485 645.52093,1182.89236 646.603125,1181.8085 C647.685875,1180.72492 649.442016,1180.72353 650.525598,1181.806 C650.905004,1182.18513 651.294672,1182.55816 651.683508,1182.9151 C656.35675,1187.207 659.25943,1193.05063 659.879293,1199.26646 L692.630262,1199.26646 C693.304762,1193.06145 696.220477,1187.21948 700.86016,1182.92065 C708.64825,1175.70527 713.114871,1165.60025 713.114871,1155.19681 C713.114871,1134.79374 696.569652,1118.19472 676.233145,1118.19472 C655.896637,1118.19472 639.351418,1134.79374 639.351418,1155.19681 C639.351418,1158.91433 639.920527,1162.61382 641.04266,1166.19238 C641.500832,1167.65398 640.68766,1169.21044 639.226059,1169.66861 C637.764457,1170.12678 636.208281,1169.31361 635.749832,1167.85201 C634.742797,1164.6412 634.129035,1161.34414 633.904941,1158.0174 L626.704543,1158.0174 C625.483676,1162.48679 621.390082,1165.78275 616.538785,1165.78275 C610.727879,1165.78275 606,1161.05514 606,1155.24396 C606,1149.43305 610.727879,1144.70518 616.538785,1144.70518 C621.389805,1144.70518 625.483676,1148.00085 626.704543,1152.47052 L633.89468,1152.47052 C634.505113,1142.83588 638.326078,1134.06239 644.295902,1127.21782 L639.253238,1122.17516 C637.639375,1123.09649 635.832758,1123.55966 634.025863,1123.55966 C631.327031,1123.55966 628.628754,1122.53265 626.573914,1120.47781 C624.583418,1118.48732 623.487078,1115.84063 623.487078,1113.02559 C623.487078,1110.21082 624.583418,1107.56413 626.573914,1105.57364 C630.683316,1101.46451 637.369242,1101.46507 641.47809,1105.57364 C641.478367,1105.57364 641.478367,1105.57364 641.478367,1105.57364 C644.908832,1109.0041 645.472949,1114.22926 643.175711,1118.25296 L648.20534,1123.28259 C655.036871,1117.24177 663.815078,1113.36783 673.462203,1112.74075 L673.462203,1106.68107 C673.462203,1106.35325 673.522109,1106.04013 673.626391,1105.74809 C669.077676,1104.58102 665.705453,1100.44666 665.705453,1095.53879 C665.705453,1089.72788 670.433332,1085 676.244238,1085 C682.055422,1085 686.783301,1089.72788 686.783023,1095.53906 C686.783023,1100.45248 683.403035,1104.59073 678.846,1105.75225 C678.949449,1106.04318 679.008801,1106.35519 679.008801,1106.68162 L679.008801,1112.74159 C688.660086,1113.36977 697.441066,1117.24731 704.273152,1123.29313 L709.312766,1118.25352 C707.015527,1114.22954 707.579645,1109.00438 711.010109,1105.57391 C715.120066,1101.46479 721.805715,1101.46507 725.914562,1105.57391 C727.905059,1107.56413 729.001398,1110.21082 729.001398,1113.02586 C729.001398,1115.8409 727.905059,1118.48759 725.914562,1120.47809 C723.860277,1122.53265 721.161168,1123.55993 718.462613,1123.55993 C716.655164,1123.55993 714.848824,1123.09677 713.234961,1122.17543 L708.181203,1127.22919 C714.14548,1134.07237 717.962285,1142.84143 718.572719,1152.4708 L725.783379,1152.4708 C727.004246,1148.00141 731.09784,1144.70545 735.949137,1144.70545 Z M714.931473,1109.49639 C712.985352,1111.44279 712.985352,1114.60977 714.932027,1116.55617 C716.878148,1118.50285 720.045414,1118.50285 721.991813,1116.55617 C723.938488,1114.61005 723.938488,1111.44279 721.991813,1109.49639 C721.018613,1108.52319 719.740059,1108.03645 718.461781,1108.03645 C717.183227,1108.03645 715.905227,1108.52319 714.931473,1109.49639 Z M637.556449,1116.55617 C639.502848,1114.60977 639.502848,1111.44279 637.556449,1109.49639 C636.58325,1108.52319 635.304695,1108.03645 634.026141,1108.03645 C632.747586,1108.03645 631.469309,1108.52319 630.496109,1109.49639 C628.549434,1111.44251 628.549434,1114.60977 630.496109,1116.55617 C632.44223,1118.50257 635.608941,1118.50229 637.556449,1116.55617 Z M616.538785,1160.23615 C619.291422,1160.23615 621.530695,1157.9966 621.530973,1155.24396 C621.530973,1152.49132 619.291422,1150.25177 616.538785,1150.25177 C613.786148,1150.25177 611.546598,1152.49132 611.546598,1155.24396 C611.546598,1157.9966 613.786148,1160.23615 616.538785,1160.23615 Z M671.251773,1095.53906 C671.251773,1098.2917 673.491324,1100.53125 676.243961,1100.53125 C678.996598,1100.53125 681.236148,1098.2917 681.236148,1095.53906 C681.236148,1092.78643 678.996598,1090.54688 676.243961,1090.54688 C673.491324,1090.54688 671.251773,1092.78643 671.251773,1095.53906 Z M697.321531,1210.36021 L697.321531,1204.81333 L655.166113,1204.81333 L655.166113,1210.36021 L676.233145,1210.36021 C677.764637,1210.36021 679.006582,1211.60187 679.006582,1213.13364 C679.006582,1214.66541 677.764637,1215.90708 676.233145,1215.90708 L655.166113,1215.90708 L655.166113,1221.45368 L697.321531,1221.45368 L697.321531,1215.90708 L687.340484,1215.90708 C685.808992,1215.90708 684.567047,1214.66541 684.567047,1213.13364 C684.567047,1211.60187 685.808992,1210.36021 687.340484,1210.36021 L697.321531,1210.36021 Z M735.949137,1160.23615 C738.701496,1160.23615 740.941324,1157.9966 740.941324,1155.24396 C740.941324,1152.49132 738.701773,1150.25177 735.949137,1150.25177 C733.1965,1150.25177 730.956949,1152.49132 730.956949,1155.24396 C730.956949,1157.9966 733.1965,1160.23615 735.949137,1160.23615 Z" id="idea"></path>
        </g>
    </g>
</svg>